<svg width="90" height="89" viewBox="0 0 90 89" fill="none" xmlns="http://www.w3.org/2000/svg">
<path d="M3.93406 4.48303H85.5994V84.9751H3.93406V4.48303ZM0.221191 88.7375H89.2944V0.720703H0.221191V88.7375ZM60.2876 36.8427C57.3602 36.8427 56.3605 38.344 56.3605 39.5921C56.3605 40.9487 57.021 41.8893 60.9659 43.9513C66.7852 46.8092 68.6059 49.5586 68.6059 53.5742C68.6059 59.5975 64.0719 62.8353 57.9492 62.8353C54.7183 62.8353 51.9337 62.166 50.345 61.2254C50.0772 61.1169 50.0415 60.9179 50.0415 60.6285V55.0755C50.0415 54.6956 50.22 54.5871 50.4878 54.768C52.8262 56.3055 55.5037 56.9928 57.9492 56.9928C60.8767 56.9928 62.1084 55.7447 62.1084 54.0625C62.1084 52.7059 61.2515 51.5121 57.503 49.5405C52.2371 46.9901 50.0415 44.4035 50.0415 40.0624C50.0415 35.2147 53.7901 31.1811 60.2876 31.1811C63.4828 31.1811 65.7141 31.6695 66.928 32.2302C67.2314 32.4111 67.3028 32.7186 67.3028 32.9899V38.145C67.3028 38.4525 67.1243 38.6334 66.7495 38.5249C65.1072 37.4757 62.6974 36.8427 60.2876 36.8427ZM28.3712 41.3104C29.228 41.3828 29.8885 41.3828 31.3701 41.3828C35.7077 41.3828 39.7954 39.8453 39.7954 33.8581C39.7954 29.0829 36.868 26.6771 31.9234 26.6771C30.4418 26.6771 29.0317 26.7495 28.3533 26.7857L28.3712 41.3104ZM21.7487 21.3412C21.7487 21.0698 22.2664 20.889 22.5698 20.889C24.9439 20.7804 28.4783 20.7081 32.1376 20.7081C42.4194 20.7081 46.4358 26.4239 46.4358 33.7134C46.4358 43.2639 39.5991 47.3699 31.2094 47.3699C29.7992 47.3699 29.3173 47.2976 28.3176 47.2976V61.7319C28.3176 62.0394 28.2105 62.1841 27.8714 62.1841H22.195C21.8915 62.1841 21.7487 62.0756 21.7487 61.7319V21.3412Z" fill="#31C5F0"/>
</svg>
